<?xml version="1.0" encoding="UTF-8"?>
<svg version="1.1" xmlns="http://www.w3.org/2000/svg" width="1276" height="432">
<path d="M0 0 C1.89878906 0.02682861 1.89878906 0.02682861 3.8359375 0.05419922 C85.6739149 1.33665358 169.25638095 11.57836616 247 38 C248.18658203 38.40009277 249.37316406 38.80018555 250.59570312 39.21240234 C322.91782981 63.70646282 392.45523188 99.30579951 450 150 C450.928125 150.8146875 451.85625 151.629375 452.8125 152.46875 C459.64320158 158.6008571 466.17005748 165.03818934 472.6875 171.5 C473.56672119 172.36616943 474.44594238 173.23233887 475.35180664 174.12475586 C481.33662309 180.10169681 486.75302681 186.37010856 492 193 C493.08319082 194.34386488 494.16650691 195.68762881 495.25 197.03125 C496.16769862 198.18668113 497.08440547 199.34290083 498 200.5 C498.47566406 201.09296875 498.95132813 201.6859375 499.44140625 202.296875 C501.46394711 204.85530275 502.95994753 206.87984258 504 210 C500.50955325 208.70862313 497.55179263 207.19380155 494.46484375 205.12109375 C493.58763672 204.53827637 492.71042969 203.95545898 491.80664062 203.35498047 C490.85982422 202.72221191 489.91300781 202.08944336 488.9375 201.4375 C417.23046332 154.13621841 338.82637633 117.01055733 -63.30419922 82.66308594 C-94.56098714 89.1254796 -124.74331638 99.10796404 -153 114 C-153.9796875 114.50015625 -154.959375 115.0003125 -155.96875 115.515625 C-168.49253245 122.06541927 -180.82840828 130.61993177 -190.6875 140.765625 C-193 143 -193 143 -195 143 C-195.25523437 143.57878906 -195.51046875 144.15757812 -195.7734375 144.75390625 C-197.1239206 147.22692466 -198.67184081 148.91041646 -200.625 150.9375 C-213.91864878 165.67611061 -221.97481462 185.20110731 -223 205 C-223.04125 205.77601563 -223.0825 206.55203125 -223.125 207.3515625 C-224.04100368 242.50320375 -203.67515042 272.9042476 -180.51806641 297.40722656 C-167.4419413 311.12685349 -153.08614537 322.56514294 -138 334 C-140 335 -140 335 -142.70776367 334.1706543 C-144.42056519 333.5041687 -144.42056519 333.5041687 -146.16796875 332.82421875 C-146.79041977 332.58388412 -147.41287079 332.3435495 -148.05418396 332.09593201 C-150.1021118 331.30176128 -152.14497295 330.49545134 -154.1875 329.6875 C-155.61051016 329.1293839 -157.03352451 328.57127852 -158.45654297 328.01318359 C-205.62477243 309.43614547 -252.31946087 286.84901302 -291.42578125 254.13671875 C-293.06528936 252.77585238 -294.72759175 251.4416703 -296.41796875 250.14453125 C-321.66261984 230.53589529 -345.78177681 202.63988057 -354 171 C-354.41379416 167.6450287 -354.46797262 164.33109431 -354.46875 160.953125 C-354.47636353 160.02006531 -354.48397705 159.08700562 -354.49182129 158.12567139 C-354.50256266 156.16258398 -354.50549986 154.19943971 -354.50097656 152.23632812 C-354.50000691 149.27113894 -354.54164245 146.30856508 -354.5859375 143.34375 C-354.65415375 132.46565797 -354.05118231 123.82750182 -349 114 C-348.54407471 113.04577148 -348.08814941 112.09154297 -347.6184082 111.10839844 C-327.1057572 69.10841323 -276.15545699 46.40192429 -234.76513672 31.86376953 C-173.90753974 10.98561582 -108.28608418 2.1661463 -44.125 0.4375 C-42.98732178 0.40623016 -42.98732178 0.40623016 -41.82666016 0.37432861 C-27.88159987 -0.00312564 -13.9502197 -0.20271905 0 0 Z " fill="#6E378C" transform="translate(354,44)"/>
<path d="M0 0 C20.150625 -0.0825 40.30125 -0.165 61.0625 -0.25 C70.56816772 -0.30462402 70.56816772 -0.30462402 80.26586914 -0.36035156 C88.06921387 -0.37841797 88.06921387 -0.37841797 91.73484802 -0.3817749 C94.26755086 -0.38787362 96.80024288 -0.40185042 99.33287048 -0.42230225 C121.80328435 -0.59451654 141.76437851 0.49783116 158.90722656 16.76660156 C170.07945082 27.8493884 175.18550429 42.20770582 175.3125 57.8125 C175.32604901 73.45859708 171.66092328 87.83998546 160.875 99.75 C155.92611505 104.35758254 149.82613923 107.62697202 144 111 C144.6290625 111.268125 145.258125 111.53625 145.90625 111.8125 C157.11541493 116.94440683 163.50883289 124.44846524 168.12109375 135.74609375 C172.51249686 147.85864519 173.10607081 160.20117459 173.9375 172.9375 C175.03520264 191.05601703 175.03520264 191.05601703 181 208 C181 208.66 181 209.32 181 210 C165.49 210 149.98 210 134 210 C132.00506048 202.68522175 130.45217444 196.27209658 129.71875 188.87109375 C129.61912964 187.95594498 129.51950928 187.0407962 129.41687012 186.09791565 C128.99710815 182.24056072 128.59781976 178.38116838 128.19775391 174.52172852 C127.89997953 171.67896623 127.59088988 168.83758431 127.28125 165.99609375 C127.19677612 165.14164169 127.11230225 164.28718964 127.02526855 163.40684509 C125.93152271 153.40687435 123.3804747 141.31706225 115.265625 134.5546875 C105.94677388 128.98811714 95.88042143 128.84935809 85.37890625 128.68359375 C83.91511536 128.65561707 83.91511536 128.65561707 82.42175293 128.6270752 C78.80208756 128.55915637 75.18228407 128.49876687 71.5625 128.4375 C63.456875 128.293125 55.35125 128.14875 47 128 C47 155.06 47 182.12 47 210 C31.49 210 15.98 210 0 210 C0 140.7 0 71.4 0 0 Z M47 36 C47 55.47 47 74.94 47 95 C55.3325 95.04125 63.665 95.0825 72.25 95.125 C74.85551758 95.14320801 77.46103516 95.16141602 80.14550781 95.18017578 C82.24804479 95.18602582 84.35058406 95.19112016 86.453125 95.1953125 C88.04519775 95.2106604 88.04519775 95.2106604 89.66943359 95.22631836 C100.32088479 95.22876023 112.22731644 94.74701951 121 88 C128.51777839 78.55301575 128.96845295 68.63253517 128 57 C126.65672716 50.22374466 123.61461503 45.66138683 118.203125 41.40234375 C108.63532183 35.31219953 96.90122874 35.84931733 85.96484375 35.90234375 C84.97133911 35.90335083 83.97783447 35.90435791 82.95422363 35.90539551 C79.28197049 35.91058409 75.60973395 35.92454497 71.9375 35.9375 C59.5934375 35.9684375 59.5934375 35.9684375 47 36 Z " fill="#6F388D" transform="translate(1025,160)"/>
<path d="M0 0 C2.69745145 2.27534652 5.15524917 4.68822006 7.62109375 7.2109375 C8.49894531 8.03658203 8.49894531 8.03658203 9.39453125 8.87890625 C27.81441599 26.35533348 37.61262785 54.06963875 38.74707031 78.97680664 C39.55580989 110.79149536 34.40348022 141.62666729 12.62109375 166.2109375 C12.08226562 166.8915625 11.5434375 167.5721875 10.98828125 168.2734375 C-4.55937587 187.5014579 -29.55110249 196.44256196 -53.37890625 199.2109375 C-83.52749476 200.78152525 -110.75448978 194.89712349 -134.25 175.15625 C-156.43952195 154.88031985 -167.04939704 124.66787598 -168.37890625 95.2109375 C-168.44078125 93.94830078 -168.44078125 93.94830078 -168.50390625 92.66015625 C-169.23197114 62.67298366 -160.01955633 31.41923189 -139.37890625 9.2109375 C-103.17158572 -27.81003068 -40.96638169 -31.47763586 0 0 Z M-115.7734375 23.33984375 C-120.44198584 28.48434604 -123.93543136 34.20050861 -127.37890625 40.2109375 C-128.13494141 41.5103125 -128.13494141 41.5103125 -128.90625 42.8359375 C-141.55438633 66.21000099 -141.4471699 97.14339235 -134.37890625 122.2109375 C-130.21606758 135.81911357 -123.39895153 147.13815514 -113.37890625 157.2109375 C-112.78851563 157.83613281 -112.198125 158.46132813 -111.58984375 159.10546875 C-98.33921065 172.03505127 -79.99011189 175.68840463 -62.14257812 175.56738281 C-54.58943268 175.37814278 -47.64320322 174.39212327 -40.37890625 172.2109375 C-39.51523437 171.95570313 -38.6515625 171.70046875 -37.76171875 171.4375 C-22.26232703 166.03994825 -10.3588094 154.18046208 -2.37890625 140.2109375 C-1.84136719 139.2725 -1.30382812 138.3340625 -0.75 137.3671875 C12.5725756 112.52509165 12.34022105 82.05360626 4.87109375 55.4609375 C1.08771161 44.09646008 -4.34469776 34.12714493 -12.37890625 25.2109375 C-12.93191406 24.57671875 -13.48492187 23.9425 -14.0546875 23.2890625 C-26.69086133 9.65767689 -44.38634286 4.29871687 -62.3659668 3.33422852 C-82.86604178 2.57136623 -100.81466823 9.1581534 -115.7734375 23.33984375 Z " fill="#713B8E" transform="translate(351.37890625,175.7890625)"/>
<path d="M0 0 C41.35465982 3.0517746 83.86315207 17.19699199 121 35 C121.69883301 35.33354492 122.39766602 35.66708984 123.11767578 36.01074219 C139.42960071 43.84888923 155.19857029 52.5691961 170 63 C170.60908203 63.42893555 171.21816406 63.85787109 171.84570312 64.29980469 C188.33461588 75.99462241 203.52253846 88.8971966 218 103 C218.93767212 103.91241455 218.93767212 103.91241455 219.89428711 104.84326172 C223.30233646 108.2006897 226.45743247 111.62315695 229.4375 115.375 C232.17972721 118.78888759 234.96682715 122.0962675 237.9375 125.3125 C243.18160746 131.11809776 247.54595887 137.58362517 252 144 C254.87913232 141.28553412 257.04460861 138.60882486 259.109375 135.23828125 C259.69138672 134.29621826 260.27339844 133.35415527 260.87304688 132.38354492 C261.49244141 131.3701001 262.11183594 130.35665527 262.75 129.3125 C264.08730049 127.14767028 265.42588544 124.98363361 266.765625 122.8203125 C267.45849609 121.70043945 268.15136719 120.58056641 268.86523438 119.42675781 C272.35352154 113.8110076 275.92842047 108.25053373 279.5 102.6875 C280.14549805 101.68178955 280.79099609 100.6760791 281.45605469 99.63989258 C282.62827066 97.81380083 283.80102145 95.98805213 284.97460938 94.1628418 C287.00061851 91.12872817 287.00061851 91.12872817 288.36244202 88.23347473 C292.453181 80.56520216 292.453181 80.56520216 296.62997437 79.03901672 C299.82722327 78.72584062 302.85034807 78.76039113 306.05859375 78.92578125 C307.77502831 78.94912788 307.77502831 78.94912788 309.52613831 78.97294617 C313.16653621 79.03433167 316.79937082 79.17226666 320.4375 79.3125 C322.91069939 79.36769739 325.38401605 79.4178839 327.85742188 79.46289062 C333.90751061 79.58390327 339.95321523 79.76773153 346 80 C339.72188517 89.99566737 333.17905199 99.80898624 326.625 109.625 C326.04996735 110.4869397 325.47493469 111.34887939 324.88247681 112.23693848 C315.94484963 125.6322873 306.95443314 138.98920858 297.86083984 152.27929688 C295.94180747 155.08508233 294.0271731 157.89383104 292.11328125 160.703125 C290.90899221 162.46884416 289.70457231 164.23447408 288.5 166 C287.95303467 166.80276367 287.40606934 167.60552734 286.8425293 168.43261719 C286.34793213 169.15610352 285.85333496 169.87958984 285.34375 170.625 C284.91255859 171.25664062 284.48136719 171.88828125 284.03710938 172.5390625 C283 174 283 174 282 175 C274.09015465 175.70287844 266.07208731 175.67631326 258.13278961 175.80750179 C254.45706555 175.86920142 250.78640795 175.95743913 247.11328125 176.11108398 C223.48277304 177.07498032 223.48277304 177.07498032 217.86755371 173.72952271 C214.19114271 170.11253254 212.71151593 165.77618327 211 161 C209.34006442 158.32471948 209.34006442 158.32471948 207.515625 156.00390625 C206.97977783 155.26857666 206.44393066 154.53324707 205.8918457 153.77563477 C205.35003662 153.04530029 204.80822754 152.31496582 204.25 151.5625 C203.65856201 150.76320068 203.06712402 149.96390137 202.45776367 149.14038086 C196.6776979 141.42107729 190.45777246 134.15534556 184 127 C183.07807476 125.96619063 182.15619789 124.93233813 181.234375 123.8984375 C171.74103804 113.37804362 161.84629751 103.13372422 151 94 C150.01128906 93.13375 149.02257812 92.2675 148.00390625 91.375 C122.96485942 69.47812234 95.20583977 50.58522724 66.25 34.2734375 C64.14686248 33.08312008 62.05674291 31.87287579 59.96875 30.65625 C49.91891125 24.8653516 39.55352341 19.75215273 29.125 14.6875 C28.41712341 14.34288727 27.70924683 13.99827454 26.97991943 13.64321899 C19.13240671 9.83070872 11.29565035 6.17974093 3.15576172 3.01879883 C1 2 1 2 0 0 Z " fill="#713A8E" transform="translate(665,80)"/>
<path d="M0 0 C13.86347494 11.68920333 21.47736899 27.13565389 24 45 C25.67874068 68.21485038 23.60150722 91.54708347 8.125 110.0625 C3.89781896 114.40572131 -0.85345533 117.82588308 -6 121 C-6.64582031 121.40089844 -7.29164063 121.80179688 -7.95703125 122.21484375 C-21.04967069 129.51915838 -37.59736679 129.84283977 -51.875 126.375 C-63.2933717 122.91195195 -69.42629591 118.57370409 -78 110 C-78.33 131.78 -78.66 153.56 -79 176 C-86.26 176 -93.52 176 -101 176 C-102.66749941 174.33250059 -102.12214776 172.30804249 -102.12908131 170.08123869 C-102.12616847 169.37210799 -102.12325563 168.66297729 -102.12025452 167.93235779 C-102.12110894 167.18421328 -102.12196337 166.43606877 -102.12284368 165.66525322 C-102.12450073 163.13936053 -102.11897348 160.61353314 -102.11352539 158.08764648 C-102.11324354 156.28456626 -102.11340121 154.48148592 -102.1139679 152.67840576 C-102.11425596 147.76745461 -102.10835784 142.85652766 -102.10139394 137.94558215 C-102.09516184 132.81927788 -102.09455672 127.69297312 -102.09336853 122.56666565 C-102.09025479 112.85209374 -102.08204083 103.13753303 -102.07201904 93.42296606 C-102.06085923 82.36632283 -102.05534779 71.30967907 -102.05032361 60.25303161 C-102.03985825 37.50201465 -102.02205762 14.75100842 -102 -8 C-94.41 -8 -86.82 -8 -79 -8 C-78.67 -3.05 -78.34 1.9 -78 7 C-76.9275 5.63875 -75.855 4.2775 -74.75 2.875 C-56.77877348 -17.17710538 -20.39778645 -15.14600929 0 0 Z M-68.75 21.6875 C-78.88379794 33.98442882 -80.83710462 50.60864084 -79.7890625 66.015625 C-78.24482807 80.17596336 -73.12331091 92.55457199 -61.9296875 101.68359375 C-51.91990651 108.51212855 -40.73203565 108.95804488 -29 108 C-19.84392007 106.10011342 -12.09573413 99.73145868 -7 92 C-1.87210055 82.2146506 0.26541611 72.94879791 1 62 C1.08121094 60.97519531 1.08121094 60.97519531 1.1640625 59.9296875 C1.75685971 45.75644503 -2.42817704 31.63183047 -11.3125 20.5625 C-14.98541548 16.64526642 -19.16446302 14.24866181 -24 12 C-24.886875 11.5875 -25.77375 11.175 -26.6875 10.75 C-42.07626593 5.75904889 -57.72704094 10.09438789 -68.75 21.6875 Z " fill="#743E90" transform="translate(511,245)"/>
<path d="M0 0 C1.1985965 -0.02897369 2.39719299 -0.05794739 3.6321106 -0.08779907 C8.41380795 -0.17219779 13.19541197 -0.24516696 17.97763252 -0.29209328 C21.60711648 -0.32780496 25.2343743 -0.38095312 28.86279297 -0.47753906 C32.37201036 -0.57067181 35.8792614 -0.61906112 39.38964462 -0.63648605 C41.37034174 -0.65734189 43.35040874 -0.7227567 45.33010864 -0.78897095 C54.16220444 -0.7704878 54.16220444 -0.7704878 57.72843933 2.19285583 C59.52112258 4.47067434 60.97715949 6.73392152 62.39794922 9.25634766 C63.25186761 10.48997808 64.11547474 11.71706078 64.99560547 12.93212891 C65.8197701 14.14263623 66.64130427 15.35493791 67.46044922 16.56884766 C68.41538348 17.97043124 69.37115259 19.37144629 70.32763672 20.77197266 C70.82618164 21.50222656 71.32472656 22.23248047 71.83837891 22.98486328 C74.55992366 26.94874124 77.32356641 30.88301889 80.08544922 34.81884766 C85.20588094 42.12011234 90.30864866 49.4333483 95.39794922 56.75634766 C101.65242636 65.75444132 107.92605772 74.73889277 114.21435547 83.71337891 C114.72627441 84.44637207 115.23819336 85.17936523 115.765625 85.93457031 C116.95270743 87.62304682 118.15044022 89.304051 119.35449219 90.98046875 C119.99660645 91.87975098 120.6387207 92.7790332 121.30029297 93.70556641 C121.89189209 94.52758545 122.48349121 95.34960449 123.09301758 96.1965332 C124.39794922 98.25634766 124.39794922 98.25634766 124.39794922 100.25634766 C116.64502242 100.7410068 108.8960218 101.07187386 101.13134766 101.30004883 C98.49574965 101.39519269 95.86114436 101.52457358 93.22900391 101.68969727 C72.18159684 102.97628176 72.18159684 102.97628176 66.2199707 98.69067383 C62.34525507 94.39464235 60.09786642 89.31165902 57.76135254 84.07107544 C55.35800404 79.10939485 52.15895425 74.69061069 49.02294922 70.17041016 C47.756539 68.29681933 46.49221992 66.42181336 45.22998047 64.54541016 C44.60043457 63.6150293 43.97088867 62.68464844 43.32226562 61.72607422 C41.36841267 58.83768363 39.42003965 55.94564942 37.47216797 53.05322266 C36.21857877 51.19623775 34.96468422 49.33945894 33.71044922 47.48291016 C33.13439941 46.62774811 32.55834961 45.77258606 31.96484375 44.89151001 C29.24845146 40.8829422 26.50486277 36.97840741 23.39794922 33.25634766 C16.97038639 42.59739821 10.58634669 51.96683069 4.24951172 61.36962891 C3.70513962 62.17699997 3.16076752 62.98437103 2.59989929 63.81620789 C-0.68680857 68.69117082 -3.97212319 73.56704567 -7.24702454 78.44995117 C-8.28203366 79.97815446 -9.32906095 81.4982919 -10.38835144 83.00976562 C-12.64380197 86.23710047 -14.57716377 89.20149427 -16.2109375 92.80249023 C-18.01669029 96.46554667 -19.10303999 98.09076591 -22.60205078 100.25634766 C-31.2706324 102.04999237 -40.31946359 101.28356689 -49.10205078 100.94384766 C-51.57069245 100.88863997 -54.03945191 100.83845527 -56.50830078 100.79345703 C-62.54212881 100.67254978 -68.57154496 100.48880255 -74.60205078 100.25634766 C-73.29246011 96.88097617 -71.93769854 94.0495852 -69.83642578 91.09619141 C-69.28341797 90.31308594 -68.73041016 89.52998047 -68.16064453 88.72314453 C-67.26539063 87.47114258 -67.26539063 87.47114258 -66.35205078 86.19384766 C-65.07587564 84.39055669 -63.79983775 82.58716859 -62.52392578 80.78369141 C-61.54456055 79.40479736 -61.54456055 79.40479736 -60.54541016 77.99804688 C-57.54463486 73.76454102 -54.57397531 69.51013031 -51.60205078 65.25634766 C-50.43295506 63.58565219 -49.26368378 61.91507956 -48.09423828 60.24462891 C-47.51641602 59.41914551 -46.93859375 58.59366211 -46.34326172 57.74316406 C-44.62022143 55.28229917 -42.89639858 52.82198429 -41.17236328 50.36181641 C-40.0238702 48.72253243 -38.87543286 47.0832094 -37.72705078 45.44384766 C-37.15905762 44.63310791 -36.59106445 43.82236816 -36.00585938 42.98706055 C-32.80991916 38.42175059 -29.62323741 33.85018311 -26.44580078 29.27197266 C-25.74310059 28.25981689 -25.04040039 27.24766113 -24.31640625 26.20483398 C-22.9705689 24.26533737 -21.62576134 22.32512557 -20.28222656 20.3840332 C-6.23953321 0.1466738 -6.23953321 0.1466738 0 0 Z " fill="#70398D" transform="translate(891.60205078125,269.74365234375)"/>
<path d="M0 0 C5.84330658 4.99593886 10.35469968 10.39699925 14.3359375 16.9609375 C15.02816406 18.09595703 15.02816406 18.09595703 15.734375 19.25390625 C23.43744409 33.18945851 24.3359375 49.42065586 24.3359375 64.9609375 C-8.3340625 64.9609375 -41.0040625 64.9609375 -74.6640625 64.9609375 C-72.11101108 80.75994592 -72.11101108 80.75994592 -64.6640625 93.9609375 C-64.6640625 94.6209375 -64.6640625 95.2809375 -64.6640625 95.9609375 C-64.08785156 96.23035156 -63.51164063 96.49976563 -62.91796875 96.77734375 C-60.62948183 97.97909685 -58.68280102 99.36960248 -56.6015625 100.8984375 C-46.48590902 107.62575827 -34.58803758 108.40416797 -22.765625 106.4921875 C-14.31161005 104.30714979 -8.24468439 99.74522383 -3.76953125 92.28125 C-2.17712973 88.93889487 -0.96402943 85.42751599 0.3359375 81.9609375 C7.5959375 81.9609375 14.8559375 81.9609375 22.3359375 81.9609375 C20.22360907 96.7472365 14.16711761 107.48790042 2.83984375 117.109375 C-11.58812659 127.77842015 -29.51453885 130.01176053 -46.94726562 127.65185547 C-62.4395439 124.92223038 -74.96369194 117.46152359 -84.9140625 105.2109375 C-97.32443524 87.36664449 -100.74512999 63.85128695 -97.3828125 42.70703125 C-94.0873647 25.53130058 -85.53228869 10.12881721 -71.48828125 -0.42578125 C-49.86140338 -14.43792607 -20.99450148 -16.06910524 0 0 Z M-63.4140625 19.0234375 C-70.68146809 26.94370695 -72.76364479 35.50864011 -74.6640625 45.9609375 C-49.9140625 45.9609375 -25.1640625 45.9609375 0.3359375 45.9609375 C-0.88599188 33.74164366 -4.01228712 25.27804928 -13.12109375 16.87109375 C-28.11263888 5.61016354 -49.46017082 6.44960104 -63.4140625 19.0234375 Z " fill="#723C8F" transform="translate(648.6640625,245.0390625)"/>
<path d="M0 0 C1.3303125 0.86625 1.3303125 0.86625 2.6875 1.75 C12.19504979 11.00058899 15.07177463 23.10677235 15.421772 35.98864651 C15.47894927 41.10676549 15.44172948 46.22183486 15.390625 51.33984375 C15.38314842 53.56042466 15.3774622 55.78101225 15.37347412 58.00160217 C15.35832933 63.79664897 15.31914561 69.59128355 15.2746582 75.38616943 C15.23346271 81.31923856 15.21541164 87.25237542 15.1953125 93.18554688 C15.15263887 104.79057321 15.08238229 116.39518756 15 128 C7.74 128 0.48 128 -7 128 C-7.01458252 125.2048291 -7.02916504 122.4096582 -7.04418945 119.52978516 C-7.09464308 110.26970935 -7.1612571 101.0097998 -7.23571491 91.74988747 C-7.28034373 86.13844885 -7.31961637 80.52708158 -7.34643555 74.91552734 C-7.37254318 69.49482957 -7.41299832 64.07440749 -7.46318626 58.65388107 C-7.47980459 56.59119484 -7.49135009 54.52846098 -7.49761391 52.46571732 C-7.50730988 49.56490784 -7.53543443 46.66479572 -7.56762695 43.76416016 C-7.56619186 42.92114349 -7.56475677 42.07812683 -7.5632782 41.20956421 C-7.67441998 34.0766722 -8.81369171 26.47714848 -13.1875 20.625 C-19.90167212 14.35843935 -27.41914862 12.63710688 -36.4453125 12.7890625 C-47.18398207 13.67574164 -55.89041563 17.40221004 -63.3125 25.25 C-66.60077056 29.35120412 -68.37998786 34.04027053 -70 39 C-70.17680298 39.54002151 -70.35360596 40.08004303 -70.5357666 40.63642883 C-71.22105673 44.12547548 -71.17019083 47.60685477 -71.18945312 51.14916992 C-71.19774643 51.96744766 -71.20603973 52.7857254 -71.21458435 53.62879944 C-71.23195639 55.40211768 -71.24713093 57.1754585 -71.26036072 58.94881248 C-71.28140629 61.7512801 -71.30842471 64.5536334 -71.33703613 67.35603333 C-71.40682855 74.31239128 -71.46638058 81.26882999 -71.52606201 88.22528076 C-71.57690496 94.10943366 -71.63168436 99.99352337 -71.69187927 105.87758827 C-71.71853618 108.64576491 -71.73929617 111.41394722 -71.7598877 114.18217468 C-71.77648161 115.86779058 -71.79335263 117.55340379 -71.81054688 119.23901367 C-71.81473129 120.01459625 -71.81891571 120.79017883 -71.82322693 121.58926392 C-71.88614901 126.88614901 -71.88614901 126.88614901 -73 128 C-80.26 128 -87.52 128 -95 128 C-95 84.11 -95 40.22 -95 -5 C-88.07 -5 -81.14 -5 -74 -5 C-73.67 1.27 -73.34 7.54 -73 14 C-71.329375 11.7415625 -71.329375 11.7415625 -69.625 9.4375 C-53.41571315 -10.66770317 -21.31976225 -14.22813607 0 0 Z " fill="#723D8F" transform="translate(788,242)"/>
<path d="M0 0 C3.63 0 7.26 0 11 0 C14 8.5 14 8.5 14 13 C14.66 13 15.32 13 16 13 C16.144375 11.783125 16.28875 10.56625 16.4375 9.3125 C16.81347252 6.14358879 17.36975549 3.15122255 18 0 C21.96 0 25.92 0 30 0 C30 8.58 30 17.16 30 26 C27.69 26 25.38 26 23 26 C22.67 22.04 22.34 18.08 22 14 C21.525625 15.794375 21.05125 17.58875 20.5625 19.4375 C19.125 24.875 19.125 24.875 18 26 C16.02 26 14.04 26 12 26 C10.68 21.71 9.36 17.42 8 13 C7.67 17.29 7.34 21.58 7 26 C4.69 26 2.38 26 0 26 C0 17.42 0 8.84 0 0 Z " fill="#7E4C98" transform="translate(1244,344)"/>
<path d="M0 0 C7.59 0 15.18 0 23 0 C23 1.98 23 3.96 23 6 C20.69 6 18.38 6 16 6 C16 12.6 16 19.2 16 26 C13.03 26 10.06 26 7 26 C7 19.4 7 12.8 7 6 C4.69 6 2.38 6 0 6 C0 4.02 0 2.04 0 0 Z " fill="#83539C" transform="translate(1219,344)"/>
<path d="M0 0 C3.63 0.33 7.26 0.66 11 1 C11 1.33 11 1.66 11 2 C5.04296875 3.07421875 5.04296875 3.07421875 3 3 C2.01 2.01 1.02 1.02 0 0 Z " fill="#B69AC4" transform="translate(665,80)"/>
<path d="" fill="#F5F1F7" transform="translate(0,0)"/>
</svg>
